<svg width="96" height="96" viewBox="0 0 96 96" fill="none" xmlns="http://www.w3.org/2000/svg">
<path d="M90.5834 0.0939331L82.5977 86.5903L47.9995 95.9061L13.4007 86.5903L5.41675 0.0939331H90.5834ZM74.4919 17.6816H47.9684H20.9749L22.2659 28.1269H47.9684H49.4121L47.9684 28.7278L23.2052 39.0414L24.0265 49.2514L47.9684 49.329L60.8005 49.3697L59.9791 62.9833L47.9682 66.3649V66.3542L47.8697 66.3816L36.2702 63.4534L35.5664 55.0027H35.5279H24.7688H24.7309L26.1392 71.3166L47.9686 77.772V77.7604L48.0079 77.772L69.7202 71.4341L72.5367 39.0414H47.9686H47.908L47.9686 39.0152L73.4367 28.1269L74.4919 17.6816Z" fill="#454545"/>
</svg>
