<svg width="96" height="96" viewBox="0 0 96 96" fill="none" xmlns="http://www.w3.org/2000/svg">
<path fill-rule="evenodd" clip-rule="evenodd" d="M53.6567 15.3137C50.5327 12.1895 45.4671 12.1895 42.3431 15.3137L39.6567 18L45.9279 24.271C46.5887 24.0942 47.2831 24 47.9999 24C52.4183 24 55.9999 27.5817 55.9999 32C55.9999 32.7166 55.9055 33.4113 55.7291 34.0722L63.9279 42.2708C64.5887 42.0944 65.2831 42 65.9999 42C70.4183 42 73.9999 45.5816 73.9999 50C73.9999 54.4184 70.4183 58 65.9999 58C61.5815 58 57.9999 54.4184 57.9999 50C57.9999 49.2832 58.0943 48.5888 58.2707 47.928L51.9999 41.6568V61.0704C54.3911 62.4536 55.9999 65.0388 55.9999 68C55.9999 72.4184 52.4183 76 47.9999 76C43.5815 76 39.9999 72.4184 39.9999 68C39.9999 65.0388 41.6087 62.4536 43.9999 61.0704V38.9298C41.6087 37.5465 39.9999 34.9611 39.9999 32C39.9999 31.2834 40.0943 30.5887 40.2707 29.9278L33.9999 23.6568L15.3136 42.3432C12.1894 45.4672 12.1894 50.5328 15.3136 53.6568L42.3431 80.6864C45.4671 83.8104 50.5327 83.8104 53.6567 80.6864L80.6863 53.6568C83.8103 50.5328 83.8103 45.4672 80.6863 42.3432L53.6567 15.3137ZM36.6862 9.65684C42.9347 3.40846 53.0651 3.40848 59.3135 9.65688L86.3431 36.6863C92.5915 42.9348 92.5915 53.0652 86.3431 59.3136L59.3135 86.3432C53.0651 92.5916 42.9347 92.5916 36.6862 86.3432L9.65673 59.3136C3.40835 53.0652 3.40837 42.9348 9.65677 36.6863L36.6862 9.65684Z" fill="#454545"/>
</svg>
