<svg width="96" height="96" viewBox="0 0 96 96" fill="none" xmlns="http://www.w3.org/2000/svg">
<g clip-path="url(#clip0_40_55)">
<path fill-rule="evenodd" clip-rule="evenodd" d="M0 0H96V96H0V0ZM73.3868 80.4784C68.9372 80.4784 66.4212 78.1576 64.4876 75.0004L57.1564 79.2596C59.8048 84.492 65.2176 88.4844 73.5956 88.4844C82.1636 88.4844 88.544 84.0352 88.544 75.9132C88.544 68.3796 84.2164 65.0284 76.5516 61.7416L74.2964 60.7756C70.426 59.0996 68.7496 58.004 68.7496 55.2976C68.7496 53.108 70.4244 51.4316 73.0668 51.4316C75.6572 51.4316 77.3256 52.524 78.8724 55.2976L85.8972 50.7872C82.9256 45.5604 78.8024 43.564 73.0668 43.564C65.0104 43.564 59.8552 48.7148 59.8552 55.4804C59.8552 62.8252 64.1796 66.2996 70.6896 69.0728L72.9448 70.0404C77.0592 71.84 79.5124 72.9356 79.5124 76.0288C79.5124 78.6104 77.1244 80.4784 73.3868 80.4784ZM38.4259 80.422C35.3264 80.422 34.0373 78.2964 32.6202 75.782L25.2769 80.228C27.4042 84.73 31.587 88.468 38.8099 88.468C46.8036 88.468 52.2804 84.2164 52.2804 74.8756V44.0792H43.2596V74.7536C43.2596 79.2624 41.3896 80.422 38.4259 80.422Z" fill="#454545"/>
</g>
<defs>
<clipPath id="clip0_40_55">
<rect width="96" height="96" fill="white"/>
</clipPath>
</defs>
</svg>
