<svg width="96" height="96" viewBox="0 0 96 96" fill="none" xmlns="http://www.w3.org/2000/svg">
<g clip-path="url(#clip0_40_49)">
<mask id="mask0_40_49" style="mask-type:luminance" maskUnits="userSpaceOnUse" x="0" y="0" width="96" height="96">
<path d="M96 0H0V96H96V0Z" fill="white"/>
</mask>
<g mask="url(#mask0_40_49)">
<path d="M44.8564 0.0258377C44.65 0.044606 43.9928 0.110295 43.4016 0.157216C29.7666 1.38654 16.9947 8.74372 8.90556 20.0516C4.40116 26.339 1.52024 33.471 0.431672 41.0252C0.0469208 43.6624 0 44.4412 0 48.0164C0 51.592 0.0469208 52.3708 0.431672 55.0076C3.04047 73.0348 15.8686 88.1808 33.2669 93.7924C36.3824 94.7964 39.6669 95.4816 43.4016 95.8944C44.8564 96.054 51.1436 96.054 52.5984 95.8944C59.0452 95.1812 64.5068 93.586 69.8932 90.8364C70.7192 90.414 70.8784 90.3016 70.766 90.2076C70.6908 90.1512 67.172 85.4312 62.9488 79.7256L55.2728 69.356L45.654 55.1204C40.3612 47.294 36.007 40.894 35.9695 40.894C35.932 40.8844 35.8944 47.2096 35.8756 54.9324C35.8475 68.4552 35.8381 68.9996 35.6692 69.3184C35.4252 69.7784 35.2375 69.966 34.8434 70.1724C34.5431 70.3228 34.2804 70.3508 32.8634 70.3508H31.2399L30.8082 70.0788C30.5267 69.9004 30.3202 69.6656 30.1795 69.3936L29.9824 68.9712L30.0012 50.156L30.0293 31.3314L30.3202 30.9654C30.4704 30.7684 30.7894 30.515 31.0147 30.393C31.3994 30.2053 31.5496 30.1866 33.173 30.1866C35.0874 30.1866 35.4064 30.2616 35.9038 30.8059C36.0446 30.956 41.2528 38.8012 47.484 48.2512C53.7148 57.7008 62.2356 70.604 66.4212 76.9384L74.0224 88.4528L74.4072 88.1996C77.8136 85.9848 81.4172 82.8316 84.2696 79.5472C90.3412 72.5748 94.2544 64.0728 95.5684 55.0076C95.9532 52.3708 96 51.592 96 48.0164C96 44.4412 95.9532 43.6624 95.5684 41.0252C92.9596 22.9983 80.1312 7.85224 62.7332 2.2405C59.6644 1.24578 56.3988 0.560736 52.7392 0.147832C51.838 0.0539904 45.6352 -0.0492356 44.8564 0.0258377ZM64.5068 29.0604C64.9572 29.2857 65.3232 29.7173 65.4544 30.1678C65.5296 30.4118 65.5484 35.6294 65.5296 47.3876L65.5016 64.2604L62.5268 59.6996L59.5424 55.1392V42.874C59.5424 34.9443 59.58 30.4868 59.6364 30.271C59.7864 29.7455 60.1148 29.3326 60.5652 29.0886C60.95 28.8915 61.0908 28.8728 62.5644 28.8728C63.9532 28.8728 64.1972 28.8915 64.5068 29.0604Z" fill="#454545"/>
</g>
</g>
<defs>
<clipPath id="clip0_40_49">
<rect width="96" height="96" fill="white"/>
</clipPath>
</defs>
</svg>
