<svg width="96" height="96" viewBox="0 0 96 96" fill="none" xmlns="http://www.w3.org/2000/svg">
<path d="M90.4847 27.7254V68.2466C90.4847 70.8763 89.0698 73.3249 86.7962 74.6484L51.6872 94.9202C50.5643 95.5716 49.2906 95.9062 47.9899 95.9062C46.7078 95.9062 45.4307 95.5716 44.3076 94.9202L32.5849 87.9846C30.8363 87.0083 31.6896 86.661 32.2676 86.4606C34.6028 85.6502 35.0751 85.4634 37.5679 84.0488C37.8279 83.9001 38.1709 83.9582 38.4392 84.1131L47.445 89.4604C47.7714 89.6443 48.2325 89.6443 48.5327 89.4604L83.6445 69.1943C83.9715 69.0075 84.1811 68.6349 84.1811 68.2468V27.7254C84.1811 27.3285 83.9715 26.9578 83.6363 26.7574L48.5389 6.50925C48.2153 6.31987 47.7833 6.31987 47.4574 6.50925L12.3679 26.763C12.027 26.958 11.8119 27.3403 11.8119 27.7254V68.2466C11.8119 68.6346 12.0268 68.9983 12.3658 69.1823L21.9844 74.7424C27.2023 77.3492 30.3984 74.2764 30.3984 71.1881V31.1829C30.3984 30.6173 30.8528 30.1712 31.4183 30.1712H35.8708C36.4275 30.1712 36.8888 30.6171 36.8888 31.1829V71.1883C36.8888 78.1532 33.0945 82.1484 26.4915 82.1484C24.4635 82.1484 22.8639 82.1484 18.4031 79.9522L9.19726 74.6484C6.92232 73.3369 5.51514 70.8765 5.51514 68.2466V27.7254C5.51514 25.0924 6.92232 22.6348 9.19726 21.3251L44.3078 1.03612C46.5296 -0.220314 49.4843 -0.220314 51.6872 1.03612L86.7962 21.3251C89.0698 22.6402 90.4847 25.0924 90.4847 27.7254ZM60.2196 64.3813C49.7421 64.3813 47.4368 61.7473 46.6644 56.5371C46.575 55.9809 46.0986 55.5667 45.5276 55.5667H40.4078C39.7736 55.5667 39.2648 56.0736 39.2648 56.7113C39.2648 63.3787 42.8936 71.3308 60.2196 71.3308C72.7645 71.3308 79.9575 66.3923 79.9575 57.7665C79.9575 49.2122 74.1774 46.9365 62.0121 45.3259C49.716 43.6987 48.4665 42.8608 48.4665 39.9806C48.4665 37.6067 49.5246 34.4342 58.632 34.4342C66.7646 34.4342 69.763 36.1871 70.9958 41.6672C71.1043 42.1838 71.5738 42.5606 72.1063 42.5606H77.2455C77.5643 42.5606 77.8671 42.4237 78.0836 42.1963C78.3008 41.9563 78.4161 41.6437 78.3857 41.316C77.5905 31.8703 71.3145 27.4702 58.6318 27.4702C47.3426 27.4702 40.6097 32.2354 40.6097 40.2206C40.6097 48.8863 47.3089 51.2831 58.1409 52.3522C71.1043 53.6239 72.1104 55.5178 72.1104 58.0688C72.1104 62.4936 68.5603 64.3813 60.2196 64.3813Z" fill="#454545"/>
</svg>
