<svg width="96" height="96" viewBox="0 0 96 96" fill="none" xmlns="http://www.w3.org/2000/svg">
<path d="M78.891 81.093L78.984 80.904C79.077 80.763 79.14 80.607 79.203 80.436V80.421C79.5 79.641 79.563 78.813 79.422 77.982V78.012C79.266 77.136 78.954 76.293 78.483 75.528L78.513 75.558L57.231 38.136L53.982 32.463L29.514 75.558C29.091 76.308 28.827 77.121 28.686 77.964V78.012C28.515 78.981 28.623 79.965 29.013 80.871L28.998 80.841C29.046 80.982 29.124 81.108 29.202 81.246L29.187 81.231C29.829 82.326 31.188 83.637 34.188 83.637H73.782C74.406 83.637 77.484 83.511 78.906 81.09L78.891 81.093ZM53.985 43.827L73.422 78.015H34.563L53.985 43.827ZM94.983 75.564L66.921 26.127C66.624 25.596 65.016 22.971 62.187 22.971C60.921 22.971 59.109 23.517 57.624 26.112L54 32.472L57.219 38.16L62.22 29.301L89.985 78.036H79.422C79.563 78.849 79.485 79.677 79.203 80.457V80.427C79.14 80.598 79.077 80.772 78.984 80.928V80.913L78.891 81.102C77.469 83.523 74.406 83.649 73.812 83.649H90.327C90.936 83.649 93.984 83.523 95.406 81.102C96.048 79.992 96.483 78.15 94.983 75.57V75.564ZM29.22 81.234C29.157 81.108 29.094 80.985 29.031 80.859V80.844C28.641 79.938 28.515 78.954 28.686 77.985V78.012L5.99697 78.015L39.717 18.687L50.778 38.139L53.997 32.466L44.34 15.465C44.073 14.982 42.45 12.357 39.636 12.357C38.37 12.357 36.543 12.903 35.073 15.513L0.917974 75.561C0.620974 76.077 -0.786026 78.795 0.620974 81.216C1.26297 82.326 2.62197 83.622 5.62197 83.622H34.215C31.245 83.622 29.856 82.341 29.214 81.216L29.22 81.234Z" fill="#454545"/>
</svg>
