<svg width="96" height="96" viewBox="0 0 96 96" fill="none" xmlns="http://www.w3.org/2000/svg">
<g clip-path="url(#clip0_42_81)">
<path d="M57.792 64.96C55.6501 68.0057 53.316 70.9116 50.804 73.66C57.492 80.152 63.716 83.192 67.164 81.196C70.62 79.204 71.096 72.296 68.82 63.26C65.408 64.02 61.7 64.596 57.792 64.96ZM52.552 65.308C49.5186 65.4336 46.4813 65.4336 43.448 65.308C44.956 67.276 46.48 69.1 48 70.764C49.52 69.1 51.04 67.276 52.552 65.308ZM72.712 33.732C83.372 36.788 90.332 41.868 90.332 48C90.332 54.132 83.372 59.212 72.712 62.268C75.392 73.028 74.476 81.596 69.168 84.66C63.856 87.728 55.976 84.24 48 76.54C40.024 84.24 32.144 87.728 26.832 84.66C21.524 81.596 20.604 73.028 23.288 62.268C12.628 59.212 5.66797 54.132 5.66797 48C5.66797 41.868 12.628 36.788 23.288 33.732C20.608 22.972 21.524 14.404 26.832 11.34C32.144 8.27201 40.024 11.76 48 19.46C55.976 11.76 63.856 8.27201 69.168 11.34C74.476 14.404 75.396 22.972 72.712 33.732ZM68.82 32.74C71.1 23.7 70.62 16.796 67.168 14.804C63.716 12.808 57.492 15.848 50.808 22.34C53.172 24.912 55.524 27.836 57.792 31.04C61.704 31.4 65.408 31.976 68.82 32.74ZM27.18 63.26C24.9 72.3 25.38 79.204 28.832 81.196C32.284 83.192 38.508 80.152 45.192 73.66C42.6813 70.9115 40.3485 68.0056 38.208 64.96C34.4995 64.6285 30.8161 64.0607 27.18 63.26ZM43.448 30.692C46.4813 30.5664 49.5186 30.5664 52.552 30.692C51.114 28.8099 49.5952 26.9908 48 25.24C46.48 26.904 44.96 28.724 43.448 30.692ZM38.208 31.04C40.3511 27.9942 42.6865 25.0883 45.2 22.34C38.508 15.848 32.28 12.808 28.836 14.804C25.38 16.796 24.904 23.704 27.18 32.74C30.592 31.98 34.3 31.404 38.208 31.04ZM55.576 61.12C58.4233 56.9414 60.9544 52.5559 63.148 48C60.9544 43.4441 58.4233 39.0586 55.576 34.88C50.5324 34.5024 45.4676 34.5024 40.424 34.88C37.5766 39.0586 35.0456 43.4441 32.852 48C35.0456 52.5559 37.5766 56.9414 40.424 61.12C45.4676 61.4976 50.5324 61.4976 55.576 61.12ZM60.712 60.596C63.172 60.276 65.512 59.864 67.712 59.38C66.9926 57.1231 66.1758 54.8983 65.264 52.712C63.8559 55.4003 62.3373 58.0292 60.712 60.592V60.596ZM35.288 35.4C32.828 35.72 30.488 36.132 28.288 36.616C28.968 38.76 29.784 40.992 30.736 43.284C32.144 40.5957 33.6626 37.9628 35.288 35.4ZM28.288 59.376C30.488 59.86 32.828 60.268 35.288 60.592C33.6626 58.0292 32.144 55.4003 30.736 52.712C29.784 55 28.968 57.232 28.288 59.376ZM24.376 58.396C25.42 55.06 26.776 51.564 28.416 47.996C26.776 44.428 25.42 40.932 24.376 37.596C15.408 40.144 9.66797 44.012 9.66797 47.996C9.66797 51.98 15.408 55.848 24.376 58.396ZM67.712 36.616C65.512 36.132 63.172 35.724 60.712 35.4C62.3373 37.9628 63.8559 40.5917 65.264 43.28C66.216 40.992 67.032 38.76 67.712 36.616ZM71.624 37.596C70.58 40.932 69.224 44.428 67.584 47.996C69.224 51.564 70.58 55.06 71.624 58.396C80.592 55.848 86.332 51.98 86.332 47.996C86.332 44.012 80.592 40.144 71.624 37.596ZM48 55.52C47.0124 55.52 46.0346 55.3255 45.1222 54.9476C44.2098 54.5697 43.3808 54.0157 42.6825 53.3175C41.9842 52.6192 41.4303 51.7902 41.0524 50.8778C40.6745 49.9654 40.48 48.9875 40.48 48C40.48 47.0125 40.6745 46.0346 41.0524 45.1222C41.4303 44.2099 41.9842 43.3809 42.6825 42.6826C43.3808 41.9843 44.2098 41.4303 45.1222 41.0524C46.0346 40.6745 47.0124 40.48 48 40.48C49.9944 40.48 51.9071 41.2723 53.3174 42.6826C54.7277 44.0928 55.52 46.0056 55.52 48C55.52 49.9944 54.7277 51.9072 53.3174 53.3175C51.9071 54.7277 49.9944 55.52 48 55.52Z" fill="#454545"/>
</g>
<defs>
<clipPath id="clip0_42_81">
<rect width="96" height="96" fill="white"/>
</clipPath>
</defs>
</svg>
