<svg width="96" height="96" viewBox="0 0 96 96" fill="none" xmlns="http://www.w3.org/2000/svg">
<path fill-rule="evenodd" clip-rule="evenodd" d="M48 24.144C37.332 24.144 30.668 29.444 28 40.048C32 34.748 36.668 32.76 42 34.084C45.044 34.84 47.22 37.036 49.624 39.464C53.548 43.42 58.088 48 68 48C78.668 48 85.332 42.7 88 32.096C84 37.396 79.336 39.384 74 38.06C70.956 37.304 68.78 35.108 66.372 32.68C62.452 28.72 57.916 24.144 48 24.144ZM28 48C17.332 48 10.668 53.3 8 63.904C12 58.6 16.668 56.616 22 57.94C25.044 58.696 27.22 60.892 29.628 63.32C33.548 67.276 38.088 71.856 48.004 71.856C58.672 71.856 65.336 66.556 68.004 55.952C64.004 61.252 59.336 63.24 54.004 61.916C50.96 61.16 48.784 58.964 46.38 56.536C42.452 52.58 37.912 48 28 48Z" fill="#454545"/>
</svg>
