<svg width="96" height="96" viewBox="0 0 96 96" fill="none" xmlns="http://www.w3.org/2000/svg">
<g clip-path="url(#clip0_40_59)">
<path d="M0 48V96H96V0H0V48ZM77.364 44.176C79.804 44.784 81.66 45.868 83.368 47.636C84.252 48.58 85.564 50.3 85.668 50.716C85.7 50.836 81.524 53.636 78.996 55.208C78.904 55.268 78.536 54.872 78.128 54.264C76.888 52.464 75.596 51.688 73.616 51.552C70.704 51.352 68.832 52.876 68.848 55.42C68.8215 56.0456 68.9623 56.667 69.256 57.22C69.896 58.544 71.088 59.34 74.816 60.952C81.692 63.912 84.632 65.86 86.46 68.632C88.5 71.724 88.96 76.664 87.572 80.336C86.052 84.328 82.272 87.04 76.952 87.936C75.308 88.228 71.408 88.184 69.64 87.864C65.784 87.176 62.128 85.272 59.872 82.772C58.988 81.8 57.264 79.252 57.372 79.072C57.416 79.008 57.812 78.764 58.252 78.508C58.684 78.264 60.296 77.332 61.82 76.448L64.58 74.848L65.16 75.704C65.968 76.936 67.732 78.628 68.8 79.192C71.864 80.808 76.068 80.58 78.14 78.72C78.5567 78.369 78.8865 77.9264 79.1037 77.4268C79.3209 76.9272 79.4196 76.3841 79.392 75.84C79.392 74.728 79.252 74.24 78.672 73.4C77.928 72.336 76.404 71.44 72.076 69.56C67.124 67.428 64.992 66.104 63.04 64C61.8217 62.6115 60.922 60.9732 60.404 59.2C60.04 57.844 59.948 54.444 60.236 53.076C61.256 48.288 64.868 44.956 70.08 43.964C71.772 43.644 75.704 43.764 77.364 44.176ZM54.828 48.184L54.86 52.116H42.36V87.62H33.52V52.116H21.032V48.26C21.032 46.124 21.076 44.34 21.136 44.3C21.184 44.236 28.788 44.204 38.004 44.22L54.784 44.268L54.828 48.184Z" fill="#454545"/>
</g>
<defs>
<clipPath id="clip0_40_59">
<rect width="96" height="96" fill="white"/>
</clipPath>
</defs>
</svg>
